<?xml version="1.0" standalone="no"?>
<!DOCTYPE svg PUBLIC "-//W3C//DTD SVG 20010904//EN"
 "http://www.w3.org/TR/2001/REC-SVG-20010904/DTD/svg10.dtd">
<svg version="1.0" xmlns="http://www.w3.org/2000/svg"
 width="467.000000pt" height="467.000000pt" viewBox="0 0 467.000000 467.000000"
 preserveAspectRatio="xMidYMid meet">
<metadata>
Created by potrace 1.14, written by Peter Selinger 2001-2017
</metadata>
<g transform="translate(0.000000,467.000000) scale(0.100000,-0.100000)"
fill="#000000" stroke="none">
<path d="M0 2335 l0 -2335 2335 0 2335 0 0 1470 c0 1338 -1 1473 -16 1495 -14
21 -16 50 -12 190 2 111 8 169 16 177 9 9 12 167 12 675 l0 663 -2335 0 -2335
0 0 -2335z m3604 2209 c18 -7 10 -34 -10 -34 -8 0 -14 9 -14 20 0 22 1 23 24
14z m-999 -469 c291 -39 475 -92 710 -204 125 -60 301 -176 414 -272 93 -80
266 -263 319 -338 203 -288 309 -513 375 -801 47 -200 52 -251 52 -485 -1
-265 -19 -398 -79 -582 -20 -60 -41 -124 -47 -143 -14 -43 -62 -151 -91 -205
-11 -22 -26 -50 -32 -62 -6 -13 -14 -23 -18 -23 -5 0 -8 -5 -8 -10 0 -6 -24
-50 -54 -98 -88 -142 -308 -386 -431 -477 -22 -16 -59 -45 -81 -65 -23 -19
-54 -42 -70 -50 -16 -8 -54 -33 -84 -54 -62 -45 -108 -52 -138 -20 -47 51
-167 269 -173 314 -4 40 20 70 81 99 94 44 330 255 427 381 50 66 109 161 158
254 46 85 141 362 155 447 38 231 30 463 -24 710 -14 60 -72 238 -81 247 -2 3
-18 -1 -35 -8 -22 -9 -30 -18 -26 -29 3 -9 19 -54 35 -101 47 -132 40 -180
-29 -195 -16 -4 -32 -10 -35 -14 -2 -5 2 -50 11 -102 11 -67 13 -122 8 -191
-7 -105 -9 -100 48 -112 60 -13 72 -68 44 -190 -19 -79 -32 -90 -103 -87 l-58
2 -22 -71 c-25 -78 -86 -210 -116 -252 -20 -27 -20 -28 -2 -48 10 -11 24 -20
31 -20 17 0 34 -32 34 -65 0 -28 -19 -60 -83 -137 -48 -59 -79 -63 -130 -18
-19 17 -41 30 -48 30 -8 0 -32 -19 -54 -41 -48 -50 -155 -137 -207 -168 -42
-25 -44 -33 -23 -84 21 -52 7 -81 -56 -113 -130 -66 -175 -64 -203 6 -8 21
-20 41 -26 45 -5 3 -45 -3 -87 -15 -79 -21 -239 -40 -178 -20 17 5 66 16 110
24 153 28 205 41 205 48 0 5 6 8 14 8 16 0 31 18 23 27 -3 2 -32 -4 -64 -16
-128 -45 -225 -63 -381 -68 -162 -6 -249 3 -382 38 -105 29 -297 107 -344 141
-21 15 -44 28 -50 28 -26 1 -114 75 -260 216 -132 129 -157 158 -165 192 -4
23 -27 69 -50 104 -22 34 -41 73 -41 86 0 13 -6 36 -14 50 -25 50 -43 97 -50
132 -4 19 -11 44 -16 55 -5 11 -18 56 -29 100 -16 66 -18 95 -11 170 4 50 12
101 18 115 5 14 12 54 16 90 15 138 74 320 149 460 102 189 302 397 485 505
23 13 32 27 31 45 -1 13 -1 13 -6 0 -8 -21 -24 -30 -51 -30 -15 0 -21 -4 -16
-12 5 -7 2 -9 -8 -5 -12 4 -14 1 -11 -14 4 -13 0 -19 -11 -19 -10 0 -13 6 -10
15 10 25 -22 17 -36 -10 -7 -13 -16 -22 -20 -20 -10 6 -70 -15 -70 -25 0 -4
-16 -15 -35 -24 -19 -9 -35 -23 -35 -30 0 -7 -21 -34 -47 -60 -69 -66 -101
-104 -158 -184 -27 -38 -62 -77 -76 -86 -15 -9 -30 -27 -33 -41 -3 -13 -15
-29 -26 -35 -11 -6 -20 -19 -20 -28 0 -10 -4 -22 -9 -27 -5 -6 -11 -26 -13
-45 -3 -31 -6 -35 -28 -32 -14 2 -38 11 -55 21 -45 26 -44 63 5 165 46 98 56
102 137 65 l46 -21 21 24 c12 13 29 39 39 58 10 19 36 55 59 80 147 163 144
159 105 185 -25 16 -47 55 -47 81 0 24 75 97 127 124 26 14 59 35 73 47 54 46
244 127 347 148 26 5 34 2 43 -15 13 -24 9 -25 -63 -34 -26 -3 -67 -16 -90
-29 -23 -13 -53 -27 -67 -30 -41 -11 -51 -22 -55 -60 -2 -24 2 -37 12 -41 8
-3 11 -11 7 -17 -4 -8 0 -7 15 1 12 6 25 18 27 25 3 8 38 24 77 36 40 12 77
26 83 31 7 5 31 14 55 21 47 14 49 19 33 94 -16 79 89 110 330 98 218 -10 376
-43 376 -78 0 -6 11 1 24 18 l24 29 63 -12 c84 -17 149 -50 174 -87 11 -17 46
-43 78 -60 61 -30 185 -120 225 -163 21 -22 28 -24 79 -17 l56 7 87 -89 c67
-68 90 -85 99 -76 25 27 11 58 -57 128 -195 201 -507 378 -777 440 -99 23
-279 45 -370 45 -94 0 -297 -24 -387 -45 -220 -52 -423 -147 -626 -292 -130
-93 -342 -319 -400 -426 -9 -17 -26 -46 -38 -62 -33 -48 -150 -296 -163 -345
-7 -25 -16 -67 -21 -95 -5 -27 -14 -75 -20 -105 -21 -104 -27 -400 -9 -447 5
-13 9 -46 9 -72 0 -27 7 -68 15 -91 8 -23 13 -46 10 -50 -3 -5 1 -26 9 -47 8
-21 17 -51 21 -68 4 -16 20 -58 36 -92 16 -35 30 -66 30 -70 0 -5 6 -15 13
-23 7 -8 36 -62 65 -120 29 -58 59 -109 67 -113 8 -4 14 -16 14 -26 0 -10 9
-26 21 -37 11 -10 18 -26 16 -35 -3 -10 1 -16 12 -15 10 1 25 -17 39 -44 12
-24 22 -40 22 -35 0 5 8 -2 17 -15 32 -45 56 -70 70 -70 7 0 13 -7 13 -15 0
-8 7 -15 15 -15 8 0 15 -4 15 -10 0 -5 6 -10 14 -10 8 0 16 -7 20 -15 3 -8 15
-15 27 -15 16 0 20 -5 16 -20 -3 -12 -1 -20 6 -19 20 4 64 -19 70 -35 4 -9 16
-16 27 -16 11 0 20 -4 20 -8 0 -5 15 -17 34 -27 38 -21 51 -61 29 -91 -7 -10
-13 -25 -13 -33 0 -15 -49 -93 -62 -99 -5 -2 -8 -10 -8 -19 0 -8 -8 -27 -18
-41 -11 -15 -25 -41 -33 -59 -16 -39 -34 -44 -74 -25 -44 22 -185 116 -225
151 -19 17 -37 31 -41 31 -6 0 -211 207 -267 270 -63 71 -133 168 -181 250
-24 41 -56 96 -71 121 -34 57 -100 209 -100 230 0 8 -6 23 -14 34 -7 11 -23
54 -35 95 -25 85 -80 341 -78 361 1 8 -2 61 -7 119 -8 105 6 390 24 475 4 22
15 74 24 115 19 95 98 337 130 398 13 26 41 81 62 122 35 71 99 172 178 285
53 75 261 288 341 350 38 29 93 71 120 92 98 75 270 170 396 219 356 137 725
190 1034 149z m1845 -735 c12 -8 14 -33 12 -149 -4 -157 -2 -161 72 -161 38 0
76 -28 76 -55 0 -32 -45 -47 -127 -42 -93 6 -112 13 -123 41 -4 11 -5 94 -2
184 5 173 11 192 55 192 12 0 29 -5 37 -10z m-4050 -74 c0 -3 -4 -8 -10 -11
-5 -3 -10 -1 -10 4 0 6 5 11 10 11 6 0 10 -2 10 -4z m590 -1232 c0 -6 -7 -17
-15 -24 -19 -16 -19 -79 -1 -150 8 -30 12 -57 10 -60 -10 -9 -80 2 -93 16 -10
9 -16 43 -19 104 -5 112 6 132 75 128 25 -1 43 -7 43 -14z m147 -650 c-3 -3
-12 -4 -19 -1 -8 3 -5 6 6 6 11 1 17 -2 13 -5z m-23 -30 c3 -9 6 -23 6 -31 0
-9 14 -29 30 -45 17 -15 30 -35 30 -43 0 -8 5 -15 10 -15 6 0 10 -8 8 -17 -2
-15 3 -18 30 -15 17 1 32 -1 32 -5 -1 -14 -70 -53 -93 -53 -21 0 -67 36 -67
52 0 5 -14 29 -30 53 -43 62 -48 98 -19 119 30 20 55 21 63 0z m464 -532 c10
-10 36 -31 57 -47 22 -17 42 -32 45 -36 12 -14 39 -16 56 -5 47 32 53 25 22
-25 -33 -53 -53 -60 -98 -36 -115 62 -140 83 -140 121 0 22 17 46 32 46 4 0
16 -8 26 -18z m952 -198 c0 -2 -7 -4 -15 -4 -8 0 -15 4 -15 10 0 5 7 7 15 4 8
-4 15 -8 15 -10z m-80 -54 c0 -52 -4 -65 -25 -86 -24 -24 -30 -25 -93 -19
-136 14 -169 33 -156 92 14 67 14 66 38 49 13 -8 40 -13 62 -12 71 5 144 19
150 27 14 24 24 3 24 -51z"/>
<path d="M2155 3956 c-144 -21 -316 -56 -354 -73 -20 -8 -58 -21 -86 -28 -27
-8 -87 -31 -133 -51 -93 -43 -107 -64 -74 -111 10 -15 27 -44 36 -64 9 -20 28
-47 42 -60 20 -19 28 -21 43 -12 41 25 212 86 321 114 63 16 178 36 257 45
104 13 144 21 148 32 10 27 15 187 6 201 -13 20 -97 22 -206 7z"/>
<path d="M2497 3948 c-21 -31 -19 -205 2 -217 8 -5 44 -12 80 -16 176 -18 349
-67 560 -160 49 -22 89 -34 101 -30 27 9 103 150 96 178 -15 59 -394 200 -651
241 -185 30 -172 30 -188 4z"/>
<path d="M1335 3667 c-204 -123 -548 -452 -606 -581 -15 -32 -14 -33 81 -92
113 -70 114 -69 185 28 78 106 254 284 378 382 113 89 110 77 51 201 -37 77
-49 86 -89 62z"/>
<path d="M3411 3562 c-22 -38 -46 -81 -53 -96 -14 -32 -22 -22 103 -121 35
-27 109 -94 164 -147 55 -54 105 -98 111 -98 6 0 19 -9 28 -19 10 -11 28 -22
41 -25 14 -4 49 -37 80 -76 l56 -71 34 30 c19 16 43 32 53 35 34 11 33 35 -5
104 -20 37 -40 69 -43 72 -3 3 -40 48 -81 100 -121 153 -377 380 -428 380 -14
0 -32 -20 -60 -68z"/>
<path d="M2655 3400 c-3 -5 1 -10 10 -10 9 0 13 5 10 10 -3 6 -8 10 -10 10 -2
0 -7 -4 -10 -10z"/>
<path d="M1960 3260 c0 -5 7 -7 15 -4 8 4 15 8 15 10 0 2 -7 4 -15 4 -8 0 -15
-4 -15 -10z"/>
<path d="M1868 3233 c6 -2 18 -2 25 0 6 3 1 5 -13 5 -14 0 -19 -2 -12 -5z"/>
<path d="M1801 3204 c-13 -13 -22 -27 -19 -30 9 -8 48 19 48 33 0 6 6 14 13
16 8 4 7 5 -3 5 -8 0 -26 -11 -39 -24z"/>
<path d="M1658 3203 c7 -3 16 -2 19 1 4 3 -2 6 -13 5 -11 0 -14 -3 -6 -6z"/>
<path d="M638 2933 c-20 -22 -65 -110 -114 -223 -84 -195 -161 -582 -126 -637
9 -15 175 -29 215 -19 36 9 48 35 54 119 3 40 9 90 15 112 5 22 13 60 18 85 4
25 17 70 28 100 11 30 30 90 42 134 12 43 36 103 52 134 45 86 38 108 -47 159
-89 53 -116 60 -137 36z"/>
<path d="M3393 2878 c-4 -7 -34 -26 -66 -43 -32 -16 -66 -38 -74 -47 -32 -36
15 -20 79 27 109 77 105 74 86 75 -9 0 -21 -6 -25 -12z"/>
<path d="M4066 2854 c-64 -31 -76 -42 -76 -71 0 -13 -7 -37 -15 -53 -14 -26
-13 -32 4 -62 53 -91 141 -450 141 -575 0 -67 25 -83 127 -83 76 0 84 2 98 24
16 25 16 39 -1 186 -11 101 -49 291 -65 325 -5 11 -18 52 -30 90 -18 58 -56
152 -88 214 -14 28 -45 29 -95 5z"/>
<path d="M3098 2701 c-71 -36 -166 -94 -358 -220 -47 -31 -89 -58 -94 -60 -19
-8 -130 -82 -149 -99 -70 -62 -98 -97 -82 -100 9 -2 22 4 29 14 7 9 18 14 24
10 10 -6 15 3 14 24 0 3 15 5 33 6 32 0 32 -1 23 -28 -13 -36 -22 -41 -72 -42
-32 -1 -43 -6 -52 -25 l-13 -25 -6 27 c-6 22 -10 25 -21 16 -21 -18 -17 -99 6
-129 11 -14 20 -29 20 -34 0 -17 52 -78 60 -69 4 4 10 21 14 36 6 26 5 28 -16
22 -16 -4 -19 -4 -9 3 8 6 11 16 8 24 -3 10 2 14 16 13 12 -1 23 -9 25 -18 2
-10 13 -17 28 -17 13 0 24 -4 24 -10 0 -12 54 -12 90 0 14 4 19 8 13 9 -25 2
-12 18 27 36 22 10 40 24 40 32 0 7 11 13 24 13 14 0 28 5 32 11 3 6 22 17 40
25 19 8 34 21 34 29 0 8 8 15 18 15 10 0 25 9 35 20 11 13 29 20 52 20 26 0
43 7 61 28 14 15 33 35 41 45 9 9 22 17 29 17 8 0 20 13 28 28 9 18 27 32 48
38 23 6 38 19 48 41 8 18 22 31 30 30 10 -1 15 6 14 23 -1 13 5 30 12 38 31
30 13 59 -33 53 -6 -1 -14 3 -18 9 -9 15 -42 12 -48 -4 -3 -8 -27 -18 -54 -22
-26 -4 -59 -11 -73 -17 -14 -6 -31 -9 -39 -8 -8 1 -10 -2 -5 -10 5 -9 1 -11
-14 -7 -12 4 -20 2 -16 -3 3 -5 -5 -13 -19 -18 -13 -5 -41 -21 -62 -36 -22
-14 -47 -24 -57 -22 -10 3 -16 2 -13 -2 6 -10 -41 -51 -59 -51 -8 0 -16 -5
-18 -11 -4 -13 -105 -21 -113 -9 -3 4 5 6 17 2 17 -4 20 -2 15 13 -6 13 -3 16
9 11 10 -4 24 4 39 22 13 15 40 36 62 47 21 11 45 26 53 34 8 8 33 22 56 33
24 10 44 22 46 26 4 9 54 43 100 67 20 10 39 27 41 37 3 10 14 18 27 18 13 0
24 8 27 20 3 11 13 20 22 20 10 0 26 7 37 15 35 27 -2 15 -78 -24z m-491 -353
c0 -7 4 -21 8 -30 4 -11 3 -18 -5 -18 -6 0 -19 -7 -28 -16 -12 -13 -17 -14
-20 -4 -3 7 3 17 12 22 9 5 16 20 16 33 0 25 16 36 17 13z m-37 -28 c0 -5 -4
-10 -10 -10 -5 0 -10 5 -10 10 0 6 5 10 10 10 6 0 10 -4 10 -10z"/>
<path d="M3241 2604 c0 -11 3 -14 6 -6 3 7 2 16 -1 19 -3 4 -6 -2 -5 -13z"/>
<path d="M2839 2483 c-13 -16 -12 -17 4 -4 9 7 17 15 17 17 0 8 -8 3 -21 -13z"/>
<path d="M2786 2443 c-6 -14 -5 -15 5 -6 7 7 10 15 7 18 -3 3 -9 -2 -12 -12z"/>
<path d="M2945 2080 c-33 -21 -94 -58 -135 -81 -61 -34 -169 -100 -190 -116
-9 -8 24 -21 39 -16 21 8 319 205 350 232 39 34 2 23 -64 -19z"/>
<path d="M400 1970 c-10 -6 -15 -31 -17 -79 -3 -69 2 -116 32 -281 9 -47 17
-96 19 -110 1 -14 8 -35 14 -46 6 -12 14 -40 18 -63 4 -23 11 -44 15 -47 5 -3
9 -12 9 -21 0 -25 89 -216 112 -240 27 -29 39 -29 88 2 22 14 44 25 50 25 23
0 88 53 92 75 3 13 -4 45 -14 72 -11 26 -29 71 -40 98 -33 84 -45 124 -86 290
-6 22 -16 92 -22 155 -15 150 -17 157 -37 165 -29 11 -217 16 -233 5z"/>
<path d="M2470 1935 c7 -9 15 -13 17 -11 7 7 -7 26 -19 26 -6 0 -6 -6 2 -15z"/>
<path d="M4136 1878 c-9 -12 -16 -38 -16 -57 0 -54 -20 -202 -32 -236 -6 -16
-19 -57 -30 -90 -11 -33 -23 -69 -28 -80 -4 -11 -18 -48 -30 -81 -12 -34 -33
-83 -46 -110 -13 -26 -24 -55 -24 -65 0 -33 151 -129 184 -116 13 5 106 184
106 204 0 3 15 44 34 92 37 92 77 266 97 423 12 91 11 99 -6 118 -16 17 -31
20 -106 20 -79 0 -89 -2 -103 -22z"/>
<path d="M800 1065 c-36 -19 -76 -44 -90 -55 -14 -11 -28 -20 -32 -20 -5 0 -8
-17 -8 -37 0 -30 8 -47 39 -82 22 -24 45 -56 53 -70 16 -32 72 -103 116 -147
17 -18 32 -40 32 -49 0 -9 4 -14 9 -11 4 3 19 -6 32 -20 13 -14 48 -44 79 -66
30 -23 66 -55 80 -70 14 -15 31 -28 37 -28 6 0 18 -6 25 -13 32 -31 85 -66
110 -72 21 -5 29 -2 37 14 7 11 25 28 41 36 40 21 90 91 90 126 0 22 -16 42
-76 96 -41 37 -81 69 -87 71 -7 2 -27 22 -46 46 -18 23 -48 51 -67 61 -19 10
-34 24 -34 32 0 7 -4 13 -9 13 -9 0 -118 126 -174 203 -39 55 -64 77 -81 77
-6 -1 -40 -16 -76 -35z"/>
<path d="M3773 932 c-100 -126 -285 -300 -390 -368 -64 -41 -83 -59 -83 -76 0
-37 87 -178 110 -178 30 0 70 18 106 48 18 15 56 45 85 67 79 61 274 252 322
314 23 31 44 58 47 61 3 3 18 24 33 48 43 66 35 87 -48 139 -38 24 -77 43 -86
43 -10 0 -52 -44 -96 -98z"/>
</g>
</svg>
